<svg xmlns="http://www.w3.org/2000/svg" viewBox="0 0 600 600" role="img" aria-label="Monitor Crimson 27">
<defs>
  <radialGradient id="bg" cx="50%" cy="42%" r="70%"><stop offset="0" stop-color="#2a0a10"/><stop offset=".55" stop-color="#0e0f12"/><stop offset="1" stop-color="#060708"/></radialGradient>
  <radialGradient id="glow" cx="50%" cy="50%" r="50%"><stop offset="0" stop-color="#e10b1e" stop-opacity=".45"/><stop offset="1" stop-color="#e10b1e" stop-opacity="0"/></radialGradient>
  <linearGradient id="metal" x1="0" y1="0" x2="0" y2="1"><stop offset="0" stop-color="#3a3d44"/><stop offset=".5" stop-color="#1c1e22"/><stop offset="1" stop-color="#0d0e10"/></linearGradient>
  <linearGradient id="metal2" x1="0" y1="0" x2="1" y2="1"><stop offset="0" stop-color="#4a4e57"/><stop offset="1" stop-color="#15161a"/></linearGradient>
  <linearGradient id="red" x1="0" y1="0" x2="1" y2="1"><stop offset="0" stop-color="#ff3347"/><stop offset="1" stop-color="#8f0917"/></linearGradient>
  <linearGradient id="screen" x1="0" y1="0" x2="1" y2="1"><stop offset="0" stop-color="#2b0710"/><stop offset=".6" stop-color="#120509"/><stop offset="1" stop-color="#05060a"/></linearGradient>
  <filter id="soft" x="-20%" y="-20%" width="140%" height="140%"><feGaussianBlur stdDeviation="14"/></filter>
</defs>
<rect width="600" height="600" fill="url(#bg)"/>
<ellipse cx="300" cy="300" rx="230" ry="200" fill="url(#glow)"/>
<path d="M0 520 L600 470 L600 600 L0 600Z" fill="#000" opacity=".35"/>
<path d="M-20 548 L620 488" stroke="#e10b1e" stroke-width="2" opacity=".55"/>
<ellipse cx="300" cy="500" rx="190" ry="18" fill="#000" opacity=".6" filter="url(#soft)"/>
<rect x="90" y="120" width="420" height="260" rx="14" fill="#16171b" stroke="#2c2f35" stroke-width="4"/>
<rect x="104" y="134" width="392" height="226" rx="6" fill="url(#screen)"/>
<path d="M104 330 C200 250 260 300 330 220 C380 165 440 190 496 150 L496 360 L104 360Z" fill="#e10b1e" opacity=".28"/>
<path d="M104 330 C200 250 260 300 330 220 C380 165 440 190 496 150" fill="none" stroke="#ff3347" stroke-width="4"/>
<text x="130" y="170" font-family="JetBrains Mono,Consolas,monospace" font-size="16" fill="#f4f1f1" opacity=".75">165 Hz · QHD</text>
<rect x="104" y="372" width="392" height="6" rx="3" fill="#e10b1e"/>
<path d="M280 380 L320 380 L335 450 L265 450Z" fill="url(#metal2)"/>
<rect x="200" y="448" width="200" height="16" rx="8" fill="url(#metal)" stroke="#2c2f35" stroke-width="2"/>
</svg>
